<?xml version="1.0" encoding="utf-8"?>
<!-- Generated by IcoMoon.io -->
<!DOCTYPE svg PUBLIC "-//W3C//DTD SVG 1.1//EN" "http://www.w3.org/Graphics/SVG/1.1/DTD/svg11.dtd">
<svg version="1.1" xmlns="http://www.w3.org/2000/svg" xmlns:xlink="http://www.w3.org/1999/xlink" width="60" height="60" viewBox="0 0 60 60">
<path fill="#444" d="M43.044 44.547c-1.407 1.407-3.687 1.407-5.091 0l-7.953-9.090-7.953 9.087c-1.407 1.407-3.687 1.407-5.091 0-1.407-1.407-1.407-3.687 0-5.091l8.274-9.45-8.277-9.456c-1.407-1.407-1.407-3.684 0-5.091s3.684-1.407 5.091 0l7.956 9.093 7.953-9.093c1.407-1.407 3.684-1.407 5.091 0s1.407 3.687 0 5.091l-8.274 9.456 8.274 9.45c1.407 1.407 1.407 3.687 0 5.094z"></path>
</svg>
