<svg xmlns="http://www.w3.org/2000/svg">
<defs>
<symbol id="back-end" viewBox="0 0 100 125">
  <path d="M85.434,5H14.566c-5.149,0-9.324,4.175-9.324,9.324v71.352c0,5.148,4.175,9.324,9.324,9.324h70.867  c5.149,0,9.324-4.176,9.324-9.324V14.324C94.758,9.175,90.583,5,85.434,5z M41.501,38.479l-0.16,0.16l-0.184,0.132  c-1.031,0.742-2.207,1.605-3.595,2.642c-1.519,1.132-2.852,2.13-4.077,3.049c-1.417,1.062-2.783,2.081-4.062,3.03  c-1.293,0.96-2.515,1.854-3.632,2.659l-0.219,0.157l-0.244,0.113c-0.926,0.426-1.86,0.643-2.78,0.643  c-1.448,0-2.739-0.501-3.731-1.449c-1.028-0.979-1.573-2.269-1.573-3.727c0-1.292,0.421-2.52,1.25-3.649l0.245-0.333l0.331-0.249  c0.857-0.644,1.871-1.396,3.01-2.233c1.155-0.851,2.302-1.707,3.406-2.546c1.205-0.914,2.374-1.788,3.474-2.598  c0.016-0.012,0.031-0.022,0.046-0.034c-1.079-0.83-2.211-1.711-3.364-2.618c-1.185-0.93-2.346-1.833-3.449-2.683  c-1.134-0.872-2.09-1.627-2.837-2.244l-0.215-0.177l-0.176-0.216c-0.971-1.193-1.463-2.501-1.463-3.887  c0-1.432,0.527-2.716,1.526-3.715c0.999-0.998,2.306-1.526,3.778-1.526c0.736,0,1.527,0.166,2.417,0.508l0.229,0.087l0.21,0.127  c0.298,0.179,0.717,0.479,1.789,1.367c0.719,0.596,1.605,1.295,2.641,2.081c1.077,0.819,2.23,1.721,3.43,2.679  c1.164,0.932,2.281,1.804,3.321,2.593c1.092,0.832,2.029,1.56,2.786,2.164c0.748,0.6,1.229,0.983,1.441,1.153  c1.882,1.487,2.278,3.235,2.278,4.439C43.349,35.406,43.028,36.951,41.501,38.479z M77.405,61.27  c-0.808,0.888-1.924,1.512-3.32,1.862l-0.335,0.085H50.133l-0.127-0.012c-2.116-0.194-3.331-1.15-3.977-1.918  c-0.871-1.039-1.331-2.25-1.331-3.504c0-1.364,0.524-2.634,1.517-3.671c0.974-1.018,2.318-1.607,3.998-1.752l0.119-0.011h23.626  l0.351,0.093c1.436,0.376,2.554,1.09,3.326,2.119c0.756,1.007,1.139,2.091,1.139,3.222C78.773,59.077,78.3,60.282,77.405,61.27z"/>
</symbol>
<symbol id="front-end" viewBox="0 0 100 125">
  <path d="M41.751,59.098v6.119L20,55.789v-5.232l21.751-9.427v6.162l-15.156,5.839L41.751,59.098z"/><path d="M55.2,41l-6.055,24.93c-0.201,0.821-0.377,1.471-0.529,1.946c-0.151,0.476-0.382,0.849-0.691,1.112   c-0.31,0.268-0.761,0.4-1.352,0.4c-1.47,0-2.206-0.636-2.206-1.902c0-0.332,0.145-1.16,0.433-2.486l6.033-24.93   c0.317-1.326,0.619-2.234,0.907-2.724c0.289-0.49,0.851-0.735,1.688-0.735c0.721,0,1.271,0.173,1.653,0.519   c0.382,0.346,0.573,0.822,0.573,1.427C55.654,39.004,55.502,39.818,55.2,41z"/><path d="M80,55.789L58.249,65.26v-6.119l15.2-5.967l-15.2-5.882v-6.076L80,50.6V55.789z"/><path d="M94,6H6c-3.313,0-6,2.687-6,6v76c0,3.313,2.687,6,6,6h88c3.314,0,6-2.688,6-6V12C100,8.686,97.314,6,94,6z M79,10  c2.205,0,4,1.794,4,4s-1.795,4-4,4s-4-1.794-4-4S76.795,10,79,10z M68,10c2.205,0,4,1.794,4,4s-1.795,4-4,4s-4-1.794-4-4  S65.795,10,68,10z M94,88H6V22h88V88z M90,18c-2.205,0-4-1.794-4-4s1.795-4,4-4s4,1.794,4,4S92.205,18,90,18z"/>
</symbol>
<symbol id="accessibility" viewBox="0 0 32 40">
  <path d="M30 6v-2l-14 4-14-4v2l11 4-1 8-4 14h2l6-14 6 14h2l-4-14v-8l10-4zM13 3c0 1.7 1.3 3 3 3s3-1.3 3-3c0-1.7-1.3-3-3-3s-3 1.3-3 3z"/>
</symbol>
<symbol id="responsive" viewBox="0 0 100 125">
  <path d="M10,4.3c-2.6,1.1-4.4,3.8-4.4,6.9l0,1.3v67.2l0,9.1c0,4.1,3.2,7.5,7.2,7.5l12.7,0c0,0,0,0,0,0l11.9,0l11.8,0c0,0,0,0,0,0   l4.1,0c-1.4-2.1-2.2-4.6-2.2-7.3v-4.3H46H12.5c-0.1,0-0.2,0-0.3,0V13.8c0,0,0,0,0,0c0.1,0,0.2,0,0.2,0h49.6c0.1,0,0.2,0,0.3,0v9.5   c0.3,0,0.7-0.1,1.1-0.1h5.6v-11l0,0v-1.1c0-3.1-1.8-5.7-4.4-6.9c-0.9-0.4-1.8-0.6-2.8-0.6l-24.5,0l-24.5,0   C11.8,3.7,10.8,3.9,10,4.3z M32.2,89.4c0.1-0.1,0.2-0.2,0.3-0.3c0.3-0.4,0.8-0.6,1.3-0.6h7c0.7,0,1.3,0.4,1.6,1   c0.1,0.3,0.2,0.6,0.2,0.9c0,0.3-0.1,0.6-0.2,0.9c-0.3,0.6-0.9,1-1.6,1h-7c-1,0-1.9-0.9-1.9-1.9C31.9,90.1,32,89.7,32.2,89.4z    M56.4,36.1v2.1v49.6V89c0,4,3.2,7.3,7,7.3h24c3.9,0,7-3.3,7-7.3v-1.3V74.2v-32v-4.1v-2.1c0-4-3.2-7.3-7-7.3h-24   C59.6,28.8,56.4,32.1,56.4,36.1z M78.5,93.2h-6.8c-1,0-1.8-0.8-1.8-1.9s0.8-1.9,1.8-1.9h6.8c1,0,1.8,0.8,1.8,1.9   S79.5,93.2,78.5,93.2z M88.9,38.7c0,0,0.1,0,0.1,0v47.7c0,0-0.1,0-0.1,0H62c-0.1,0-0.1,0-0.1,0V38.7c0,0,0.1,0,0.1,0H88.9z"/>
</symbol>
<symbol id="codepen" viewbox="0 0 150 150">
  <path d="M121.386,60.351c-0.009-0.059-0.023-0.114-0.032-0.173c-0.02-0.113-0.04-0.226-0.07-0.334
            c-0.017-0.066-0.041-0.131-0.062-0.192c-0.031-0.098-0.064-0.195-0.104-0.29c-0.025-0.066-0.059-0.132-0.088-0.195
            c-0.042-0.09-0.085-0.179-0.135-0.264c-0.037-0.063-0.077-0.125-0.114-0.185c-0.054-0.083-0.108-0.164-0.169-0.241
            c-0.043-0.059-0.09-0.117-0.136-0.174c-0.063-0.073-0.13-0.146-0.199-0.215c-0.052-0.054-0.104-0.107-0.158-0.156
            c-0.074-0.066-0.148-0.13-0.226-0.189c-0.061-0.047-0.119-0.093-0.182-0.137c-0.024-0.015-0.044-0.034-0.066-0.049L77.241,29.353
            c-1.34-0.894-3.084-0.894-4.424,0L30.413,57.556c-0.022,0.015-0.042,0.033-0.066,0.049c-0.062,0.044-0.121,0.09-0.18,0.125
            c-0.077,0.061-0.153,0.125-0.227,0.189c-0.056,0.049-0.107,0.103-0.16,0.156c-0.069,0.069-0.135,0.142-0.197,0.25
            c-0.047,0.057-0.094,0.115-0.137,0.174c-0.06,0.077-0.115,0.158-0.168,0.241c-0.04,0.061-0.077,0.122-0.115,0.125
            c-0.048,0.085-0.092,0.174-0.135,0.264c-0.03,0.063-0.062,0.13-0.088,0.194c-0.039,0.096-0.072,0.192-0.104,0.25
            c-0.021,0.064-0.043,0.128-0.062,0.192c-0.028,0.11-0.048,0.222-0.069,0.334c-0.01,0.059-0.025,0.115-0.031,0.125
            c-0.023,0.171-0.036,0.344-0.036,0.52v28.385c0,0.125,0,0.375,0,0.522c0.007,0,0,0.125,0,0.125c0.021,0.125,0,0.25,0.125,0.335
            c0.019,0.125,0,0.125,0.125,0.192c0.031,0.125,0.125,0.25,0.125,0.25c0.026,0.125,0,0.125,0.125,0.191
            c0.042,0.125,0.125,0.125,0.125,0.267c0.036,0,0.124,0.125,0.124,0.125c0.053,0.125,0.125,0.125,0.125,0.24
            c0.044,0,0.125,0.125,0.125,0.174c0.062,0.125,0.125,0.125,0.25,0.25c0.053,0,0.125,0.125,0.125,0.156
            c0.073,0.125,0.125,0.125,0.25,0.189c0.059,0,0.125,0.125,0.125,0.125c0.023,0,0,0,0.125,0.049l42.306,28.384
            c0.67,0.5,1.5,0.625,2.25,0.671c0.769,0,1.54-0.225,2.211-0.671l42.406-28.259c0.022-0.015,0.042-0.033,0.065-0.048
            c0.062-0.044,0.122-0.091,0.182-0.137c0.077-0.062,0.152-0.125,0.227-0.189c0.055-0.049,0.105-0.104,0.158-0.156
            c0.07-0.069,0.135-0.142,0.199-0.216c0.046-0.056,0.092-0.112,0.136-0.173c0.061-0.078,0.115-0.159,0.169-0.241
            c0.037-0.062,0.077-0.123,0.113-0.183c0.05-0.088,0.094-0.177,0.135-0.266c0.03-0.064,0.062-0.127,0.089-0.192
            c0.039-0.097,0.071-0.194,0.103-0.292c0.021-0.063,0.045-0.127,0.062-0.192c0.028-0.11,0.05-0.223,0.07-0.335
            c0.01-0.056,0.024-0.115,0.032-0.171c0.022-0.174,0.035-0.347,0.035-0.522V60.871c-0.037-0.169-0.008-0.294-0.133-0.521H121.386z
             M79.017,40.06l31.239,20.816l-13.953,9.331L79.017,58.649V40.06z M71.042,40.093v18.589L53.758,70.207l-13.955-9.331L71.042,40.06
            V40.093z M36.612,68.331l9.975,6.67l-9.975,6.669V68.331z M71.042,109.94L39.803,89.18l13.955-9.329l17.284,11.556V109.94z
             M75.03,84.43l-14.102-9.429l14.102-9.429l14.101,9.429L75.03,84.43z M79.017,109.94V91.353l17.286-11.556l13.953,9.329
            L79.017,109.94z M113.448,81.67l-9.974-6.669l9.974-6.67V81.67z"/>
</symbol>
</defs>
</svg>